# xmcd
#
# Track frame offsets: 
#        150
#        23296
#        42374
#        56479
#        75711
#        90090
#        103254
#        124779
#        132885
#        150380
#        164974
#        175284
#        188573
#
# Disc length: 2784 seconds
#
# Revision: 0
# Processed by: cddbd v1.5.2PL0 Copyright (c) Steve Scherf et al.
# Submitted via: ExactAudioCopyFreeDBPlugin 1.0
#
DISCID=9a0ade0d
DTITLE=Adrian Legg - Dead Bankers
DYEAR=2014
DGENRE=Blues
TTITLE0=Dead Bankers
TTITLE1=The Doorbell Song
TTITLE2=Siobhan Kapoor
TTITLE3=A Waltz for Leah (Rewritten)
TTITLE4=Toot Toot (A Nasty Incident in Montrose)
TTITLE5=The Oily Gull
TTITLE6=Paddy on a Train
TTITLE7=Marco's Bounce
TTITLE8=Hacked-Off Boogie
TTITLE9=The Rural Bus
TTITLE10=Gas Bill
TTITLE11=Buffalo Bayou (A Nasty Incident in Montrose)
TTITLE12=Warm Beach
EXTD=
EXTT0=
EXTT1=
EXTT2=
EXTT3=
EXTT4=
EXTT5=
EXTT6=
EXTT7=
EXTT8=
EXTT9=
EXTT10=
EXTT11=
EXTT12=
PLAYORDER=
